# xmcd
#
# Track frame offsets:
# 150
# 10379
# 25762
# 36824
# 55594
# 70281
# 83575
# 96810
# 108274
# 123287
# 138554
#
# Disc length: 1986 seconds
#
#
# Revision: 0
# Processed by: cddbd v1.5.1PL2 Copyright (c) Steve Scherf et al.
# Submitted via: FreeRIP 2.944 
#
DISCID=8507c00b
DTITLE=Con Hunley - The First Time from Studio B
DYEAR=2005
DGENRE=Country
TTITLE0=Misery Loves Company
TTITLE1=Loving You Is A Habit I Can't Break
TTITLE2=Columbus Stockade Blues
TTITLE3=Breaking Up Is Hard To Do
TTITLE4=It Looks Like A Good Night For Drinking
TTITLE5=Pick Up The Pieces Of Your Heart
TTITLE6=Deep In THe Arms Of Texas
TTITLE7=Never Felt More Like Dying
TTITLE8=I'll Always Remember That Song
TTITLE9=Look At Me Loving You Again
TTITLE10=Woman To Man, Man To Woman
EXTD=
EXTT0=
EXTT1=
EXTT2=
EXTT3=
EXTT4=
EXTT5=
EXTT6=
EXTT7=
EXTT8=
EXTT9=
EXTT10=
PLAYORDER=
